<?xml version="1.0" encoding="utf-8" ?>
<svg xmlns="http://www.w3.org/2000/svg" xmlns:xlink="http://www.w3.org/1999/xlink" width="1024" height="1024">
	<path fill="#0a4de8" transform="scale(2 2)" d="M253.003 21.8905C267.235 20.6908 276.105 28.7435 285.466 38.1003L356.658 108.824L480.577 232.838C486.347 239.302 490.502 249.913 488.646 258.655L488.565 259.018C486.713 270.518 481.272 275.147 473.55 282.978L283.264 472.046C275.234 479.993 270.481 484.498 258.519 485.749C240.137 486.099 232.648 475.958 220.837 464.178L40.3972 284.562C36.756 280.858 32.779 277.263 29.4923 273.25C20.0364 261.704 19.9591 245.864 29.5753 234.327C32.3546 230.992 35.6611 228.049 38.75 225.006L223.471 40.6672C232.176 32.0279 239.915 23.1063 253.003 21.8905ZM227.049 231.875C225.149 233.108 223.686 234.782 222.149 236.423L197.558 262.391C186.279 273.907 178.01 284.284 160.755 284.46L131.807 284.307C129.488 284.173 127.089 284.173 124.815 283.677C128.674 288.462 133.368 292.691 137.741 297L171.725 330.905C172.972 332.116 174.543 334.107 175.98 335.014L223.833 382.524C224.984 383.699 226.836 384.77 227.536 386.182L227.049 231.875ZM285.757 385.221C286.911 384.812 287.978 383.872 288.853 383.035L385.846 285.125C384.081 285.078 382.327 284.734 380.56 284.631L356.752 284.52C335.101 284.481 332.084 279.903 316.918 264.165L298.223 244.902C294.168 240.788 290.169 236.605 285.68 232.798C284.742 235.703 285.301 240.191 285.309 243.238L285.344 344.524C285.346 348.661 284.98 383.924 285.457 384.856L285.757 385.221ZM284.969 118.713C283.005 122.262 285.11 129.157 285.222 133.053L285.262 143.133C285.225 145.102 284.417 147.918 285.64 149.625L285.794 149.845C288.396 153.377 292.465 156.043 295.257 159.45C295.38 159.451 296.071 160.13 296.211 160.256L360.133 223.98C363.245 227.223 362.876 225.919 367.063 225.834L390.754 225.869C389.764 225.108 389.135 224.119 388.28 223.214L294.484 128.465C291.338 125.219 288.481 121.65 284.969 118.713ZM228.096 118.625L121.59 225.625C121.812 225.984 121.651 225.838 122.125 225.999C129.217 225.37 136.561 225.75 143.684 225.749L148.104 225.748C149.674 225.747 150.062 225.827 151.08 224.599L151.303 224.326C154.578 220.362 158.966 216.914 162.626 213.262L226.925 148.386C228.415 147 228.269 146.775 228.354 144.747L228.096 118.625Z"/>
</svg>
